<svg width="122" height="106" viewBox="0 0 122 106" fill="none" xmlns="http://www.w3.org/2000/svg">
<path d="M87.5285 16.5653H83.575V21.4461H87.5285V16.5653Z" fill="#748EA0"/>
<path d="M91.2564 54.4661H87.3028V59.347H91.2564V54.4661Z" fill="#748EA0"/>
<path d="M44.0631 7.34711H40.1081V12.2279H44.0631V7.34711Z" fill="#748EA0"/>
<path d="M54.7621 4.88034L54.7062 0L50.7531 0.0522657L50.809 4.93261L54.7621 4.88034Z" fill="#748EA0"/>
<path d="M100.214 43.4683H96.2605V48.349H100.214V43.4683Z" fill="#748EA0"/>
<path d="M77.0347 85.582H73.0812V90.4627H77.0347V85.582Z" fill="#748EA0"/>
<path d="M100.853 27.3215C97.3143 30.1311 94.3158 29.8791 90.8428 29.5876C87.0811 29.2712 82.8126 28.9123 78.046 32.696C73.2766 36.4782 72.6555 40.7159 72.1062 44.4527C71.5993 47.9009 71.1614 50.8789 67.6224 53.6855C64.0863 56.4891 61.0892 56.2401 57.6176 55.9457C54.7876 55.7113 51.6777 55.4477 48.2852 56.9359C47.1602 57.4281 46.0074 58.1122 44.8238 59.0497C44.3038 59.4642 44.0826 60.0882 44.1148 60.7064C44.1383 61.1019 44.2408 61.4959 44.5045 61.8284C44.8971 62.3206 45.4713 62.5784 46.0557 62.5784C46.4879 62.5784 46.92 62.4378 47.2833 62.1492C47.9263 61.6395 48.5474 61.2601 49.1597 60.9364C51.7598 59.555 54.1606 59.6341 56.8017 59.8524C56.9643 59.8641 57.1225 59.8758 57.288 59.889C61.0526 60.2069 65.3182 60.5672 70.0818 56.785C74.8483 53.0029 75.4724 48.7651 76.0217 45.0298C76.5285 41.5816 76.9635 38.6051 80.5055 35.797C84.0445 32.9875 87.043 33.238 90.5161 33.5309C94.2748 33.8459 98.5463 34.2048 103.313 30.4226C104.168 29.7429 104.312 28.4993 103.634 27.6453C102.955 26.7913 101.709 26.6433 100.853 27.3215Z" fill="#748EA0"/>
<path d="M96.0353 73.5177C81.3636 64.2029 64.7613 67.4211 58.4567 69.1745C56.9582 69.592 56.0339 69.9274 55.864 69.9933C55.0949 70.279 54.6115 70.9953 54.5793 71.7672C54.5676 72.0221 54.6086 72.2829 54.7024 72.5333C55.0832 73.5543 56.2243 74.0729 57.2424 73.6979C57.443 73.6232 77.4408 66.4001 93.9142 76.856C94.2438 77.0655 94.61 77.1651 94.9733 77.1651C95.6281 77.1651 96.2697 76.8385 96.6447 76.2467C97.2306 75.3224 96.9567 74.1007 96.0353 73.5177Z" fill="#748EA0"/>
<path d="M30.7446 47.4087C30.519 48.4765 31.2031 49.5253 32.2695 49.7524C32.4101 49.7817 32.5463 49.7949 32.6811 49.7949C33.5937 49.7949 34.4154 49.1591 34.6117 48.2304C34.7377 47.6504 37.556 33.9059 30.0459 27.6467C29.208 26.948 27.957 27.0608 27.2627 27.9001C26.5611 28.738 26.6768 29.986 27.5147 30.6848C33.1909 35.4147 30.7695 47.2885 30.7446 47.4087Z" fill="#748EA0"/>
<path d="M45.9787 29.0954C48.2067 30.7873 51.9918 31.4875 55.3887 31.4875C55.4034 31.4875 55.4195 31.4875 55.4341 31.486C55.5088 34.2648 54.6622 37.1915 52.9644 39.7286C50.6471 43.1944 47.2589 45.1792 43.6686 45.1792C43.6628 45.1792 43.654 45.1792 43.6481 45.1792H43.6452C42.5554 45.1792 41.6706 46.064 41.6677 47.1538C41.6648 48.2465 42.5495 49.1342 43.6423 49.1342C43.6511 49.1342 43.6599 49.1342 43.6686 49.1342C48.6022 49.1342 53.1885 46.5107 56.2515 41.9273C58.4517 38.6358 59.521 34.7965 59.373 31.1286C60.0117 30.9997 60.583 30.84 61.0605 30.6525C65.849 28.7776 67.3505 22.6048 66.7191 17.6639C66.0497 12.4433 63.2197 8.90866 59.3335 8.44431C58.2554 8.33006 57.2652 9.08737 57.1362 10.1743C57.0073 11.2582 57.7793 12.2426 58.8647 12.373C61.2568 12.6586 62.477 15.6718 62.7949 18.1664C63.2504 21.7054 62.184 25.9651 59.6177 26.9714C59.3628 27.071 59.0625 27.1604 58.7227 27.2351C58.585 26.7781 58.4253 26.3298 58.2422 25.8904C56.8286 22.4861 51.4366 19.4481 47.7687 19.9989C45.5055 20.3314 44.0114 21.9412 43.7712 24.3054C43.5793 26.1702 44.3644 27.8723 45.9787 29.0954ZM47.7028 24.7009C47.7775 23.992 48.0001 23.9583 48.3414 23.9085C48.4557 23.8909 48.5758 23.8836 48.6989 23.8836C50.6354 23.8836 53.9195 25.7966 54.5875 27.4035C54.605 27.4431 54.6211 27.4826 54.6358 27.5222C52.2188 27.4328 49.6803 26.9392 48.3678 25.9431C47.7233 25.4568 47.6691 25.0584 47.7028 24.7009Z" fill="#748EA0"/>
<path d="M116.874 17.8675H112.92V22.4612H116.874V17.8675Z" fill="#748EA0"/>
<path d="M116.874 27.4724H112.92V32.0661H116.874V27.4724Z" fill="#748EA0"/>
<path d="M122 22.99H117.405V26.9436H122V22.99Z" fill="#748EA0"/>
<path d="M112.392 22.99H107.796V26.9436H112.392V22.99Z" fill="#748EA0"/>
<path d="M20.4059 11.6376H16.4523V16.2299H20.4059V11.6376Z" fill="#748EA0"/>
<path d="M20.4059 21.241H16.4523V25.8347H20.4059V21.241Z" fill="#748EA0"/>
<path d="M25.5261 16.7601H20.9338V20.7137H25.5261V16.7601Z" fill="#748EA0"/>
<path d="M15.9231 16.7601H11.3279V20.7137H15.9231V16.7601Z" fill="#748EA0"/>
<path d="M0 105.14L7.85732 101.437L1.87205 101.169L0 105.14Z" fill="#748EA0"/>
<path d="M16.5326 70.0562L13.4741 76.5527L48.8276 78.1406L41.8799 71.1973L16.5326 70.0562Z" fill="#748EA0"/>
<path d="M21.4188 59.6868L18.3602 66.1789L37.734 67.0519L30.7907 60.1087L21.4188 59.6868Z" fill="#748EA0"/>
<path d="M23.2471 55.808L26.6455 55.9618L24.2856 53.602L23.2471 55.808Z" fill="#748EA0"/>
<path d="M8.58721 86.9208L36.041 88.16L48.8904 82.103L11.6458 80.4301L8.58721 86.9208Z" fill="#748EA0"/>
<path d="M3.70036 97.2917L15.5274 97.8249L28.3709 91.7737L6.75892 90.8011L3.70036 97.2917Z" fill="#748EA0"/>
</svg>
